<?xml version="1.0" standalone="no"?>
<!DOCTYPE svg PUBLIC "-//W3C//DTD SVG 20010904//EN"
 "http://www.w3.org/TR/2001/REC-SVG-20010904/DTD/svg10.dtd">
<svg version="1.0" xmlns="http://www.w3.org/2000/svg"
 width="416.000000pt" height="416.000000pt" viewBox="0 0 416.000000 416.000000"
 preserveAspectRatio="xMidYMid meet">

<g transform="translate(0.000000,416.000000) scale(0.100000,-0.100000)"
fill="#000000" stroke="none">
<path d="M1665 2856 c17 -14 66 -44 110 -67 62 -32 97 -43 155 -50 41 -5 92
-11 112 -15 39 -6 128 17 146 39 8 9 -11 12 -81 12 -148 0 -197 6 -282 35 -44
15 -82 27 -85 28 -9 1 -61 22 -83 33 -15 7 -12 2 8 -15z"/>
<path d="M1805 2557 c-6 -7 -17 -27 -24 -45 -8 -18 -21 -37 -30 -42 -16 -10 2
-8 86 9 l32 6 -19 43 c-20 44 -28 49 -45 29z"/>
<path d="M2472 2488 c-28 -28 3 -148 56 -216 20 -26 22 -26 36 -9 7 10 12 27
9 37 -9 35 5 22 37 -36 18 -30 38 -58 45 -60 7 -3 20 -23 30 -45 13 -29 21
-36 30 -29 10 8 4 20 -25 49 -21 21 -71 101 -112 176 -40 76 -78 140 -84 142
-5 2 -15 -2 -22 -9z"/>
<path d="M1180 2280 c14 -4 39 -8 55 -8 25 -1 27 1 10 8 -11 5 -36 8 -55 8
-32 0 -33 -1 -10 -8z"/>
<path d="M1142 2118 c-7 -7 -12 -20 -12 -30 0 -14 8 -18 39 -18 41 0 51 -11
51 -56 0 -16 -7 -25 -22 -28 -58 -13 -59 -15 -2 -11 l61 4 16 -34 c18 -37 11
-50 -33 -58 -17 -3 -11 -5 16 -6 24 0 47 -8 54 -16 15 -18 13 -21 -20 -34
l-25 -10 27 0 c15 -1 39 -6 53 -13 14 -6 27 -9 30 -6 7 7 -48 109 -109 199
-60 90 -107 134 -124 117z"/>
<path d="M2440 1955 c0 -5 5 -17 10 -25 5 -8 10 -10 10 -5 0 6 -5 17 -10 25
-5 8 -10 11 -10 5z"/>
<path d="M2439 1896 c-6 -6 -105 -26 -227 -46 -49 -8 -81 -19 -96 -34 -12 -11
-14 -15 -4 -7 12 9 34 12 70 8 69 -6 236 17 255 36 8 8 13 22 11 32 -1 9 -6
14 -9 11z"/>
<path d="M2080 1753 c0 -27 3 -30 21 -26 11 3 17 9 11 12 -5 3 -14 15 -20 26
-10 18 -11 17 -12 -12z"/>
<path d="M2165 1494 l-50 -13 54 4 c30 2 59 9 65 15 13 13 -5 12 -69 -6z"/>
<path d="M1905 1435 c-71 -19 -133 -32 -136 -29 -4 2 -10 -3 -13 -12 -5 -12
-15 -15 -39 -11 l-34 5 14 -71 c17 -90 33 -315 33 -473 0 -137 0 -138 -86
-192 -28 -18 -64 -44 -80 -58 l-29 -25 54 21 c113 44 220 101 245 131 30 35
33 68 11 142 -18 66 -57 335 -50 347 5 8 63 -15 127 -50 15 -8 17 -1 16 73 -2
126 21 180 92 218 48 25 27 22 -125 -16z m35 -34 c0 -13 -21 -27 -73 -46 -55
-21 -55 -20 -63 -71 -3 -22 -7 -40 -9 -42 -4 -5 -45 106 -45 122 0 16 29 25
85 27 22 0 51 5 65 9 35 11 40 11 40 1z"/>
<path d="M2549 1414 c-39 -58 -103 -120 -165 -160 -55 -35 -56 -37 -50 -73 4
-20 11 -155 15 -299 5 -145 13 -267 17 -271 15 -12 181 -111 187 -111 3 0 0
14 -7 32 -10 23 -11 40 -4 60 11 31 12 31 208 73 127 27 264 65 258 71 -2 2
-125 -26 -273 -61 -147 -35 -272 -62 -276 -59 -4 2 -12 28 -18 57 -25 123 -19
156 21 120 21 -18 21 -18 8 6 -6 13 -8 21 -3 18 21 -13 126 -8 235 12 l43 7
-36 18 c-45 21 -79 52 -79 71 0 8 26 28 58 45 31 17 48 28 37 25 -11 -2 -54
-13 -95 -24 l-75 -19 -41 34 c-43 36 -54 63 -54 137 0 23 -9 54 -21 73 -18 30
-19 33 -3 27 11 -4 15 -2 11 4 -4 5 5 21 19 34 58 54 115 139 112 166 -3 27
-3 27 -29 -13z"/>
<path d="M1920 1125 c-7 -9 -20 -13 -29 -10 -9 3 0 -9 19 -27 l35 -33 3 27 c2
15 -1 35 -6 43 -8 15 -10 15 -22 0z"/>
<path d="M2557 1103 c-11 -10 -8 -133 2 -133 5 0 11 32 13 70 3 66 0 79 -15
63z"/>
<path d="M2925 1052 c-77 -19 -135 -37 -129 -39 11 -4 284 65 293 73 9 9 -30
1 -164 -34z"/>
<path d="M3169 984 c-91 -61 -126 -90 -69 -57 112 65 160 97 160 105 0 13 -2
12 -91 -48z"/>
<path d="M1946 997 c-6 -27 -38 -41 -55 -24 -7 7 -8 3 -4 -11 5 -22 23 -32 60
-37 21 -3 22 0 16 43 -7 57 -9 60 -17 29z"/>
<path d="M2758 1003 c7 -3 16 -2 19 1 4 3 -2 6 -13 5 -11 0 -14 -3 -6 -6z"/>
<path d="M2467 753 c-4 -3 -7 -33 -7 -65 0 -43 3 -59 13 -56 7 3 13 28 15 66
3 57 -4 73 -21 55z"/>
<path d="M2628 574 c-5 -4 -8 -35 -7 -68 l1 -61 9 45 c10 50 8 96 -3 84z"/>
</g>
</svg>
